# xmcd CD database file
#
# Track frame offsets:
#	150
#	20947
#	40863
#	60518
#	78978
#	99230
#	118468
#	139145
#	157150
#	171898
#	192300
#
# Disc length: 2832 seconds
#
# Revision: 0
# Processed by: cddbd v1.5.1PL0 Copyright (c) Steve Scherf et al.
# Submitted via: CDex 1.51
#
DISCID=990b0e0b
DTITLE=ROLLER COASTER - COME CLOSER
DYEAR=2001
DGENRE=Pop
TTITLE0=come closer -floor version-
TTITLE1=君に贈る歌
TTITLE2=またお別れ
TTITLE3=Dear Mr.Kim
TTITLE4=love virus
TTITLE5=runner -day by day-
TTITLE6=Good-bye
TTITLE7=8935日
TTITLE8=どこにいるの？
TTITLE9=ある日
TTITLE10=come closer -readymade 524mix-
EXTD=YEAR: 2001
EXTT0=
EXTT1=
EXTT2=
EXTT3=
EXTT4=
EXTT5=
EXTT6=
EXTT7=
EXTT8=
EXTT9=
EXTT10=
PLAYORDER=
